<svg xmlns="http://www.w3.org/2000/svg" xmlns:xlink="http://www.w3.org/1999/xlink" aria-hidden="true" role="img" class="iconify iconify--logos" width="256" height="256" preserveAspectRatio="xMidYMid meet" viewBox="0 0 256 256"><defs><linearGradient id="IconifyId1813088fe1fbc01fb467" x1="-.828%" x2="57.636%" y1="7.652%" y2="78.411%"><stop offset="0%" stop-color="#41D1FF"></stop><stop offset="100%" stop-color="#BD34FE"></stop></linearGradient><linearGradient id="IconifyId1813088fe1fbc01fb468" x1="43.376%" x2="50.316%" y1="2.242%" y2="89.03%"><stop offset="0%" stop-color="#FFEA83"></stop><stop offset="8.333%" stop-color="#FFDD35"></stop><stop offset="100%" stop-color="#FFA800"></stop></linearGradient></defs><path fill="url(#IconifyId1813088fe1fbc01fb467)" d="M255.153 38.213c-5.12-15.04-18.688-25.728-34.56-25.728H34.56C18.688 12.485 5.12 23.173.001 38.213l98.304 179.071a34.56 34.56 0 0 0 60.16 0l96.688-179.07Z"></path><path fill="url(#IconifyId1813088fe1fbc01fb468)" d="m183.04 12.485l-42.24 76.8l-42.24-76.8H34.56C18.688 12.485 5.12 23.173.001 38.213L128 243.077l127.152-204.864C250.033 23.173 236.465 12.485 220.593 12.485h-37.553Z"></path></svg>